<svg width="46" height="46" viewBox="0 0 46 46" fill="none" xmlns="http://www.w3.org/2000/svg">
<path d="M19.4644 1.46447C21.417 -0.488155 24.5828 -0.488156 26.5355 1.46447L44.4643 19.3933C46.4169 21.346 46.4169 24.5118 44.4643 26.4644L26.5355 44.3933C24.5828 46.3459 21.417 46.3459 19.4644 44.3933L1.53551 26.4644C-0.417109 24.5118 -0.417112 21.346 1.53551 19.3933L19.4644 1.46447Z" fill="#181825"/>
<path fill-rule="evenodd" clip-rule="evenodd" d="M42.343 21.5147L24.4141 3.58579C23.6331 2.80474 22.3668 2.80474 21.5857 3.58579L3.65683 21.5147C2.87578 22.2957 2.87578 23.562 3.65683 24.3431L21.5857 42.272C22.3668 43.053 23.6331 43.053 24.4141 42.272L42.343 24.3431C43.124 23.562 43.1241 22.2957 42.343 21.5147ZM26.5355 1.46447C24.5828 -0.488156 21.417 -0.488155 19.4644 1.46447L1.53551 19.3933C-0.417112 21.346 -0.417109 24.5118 1.53551 26.4644L19.4644 44.3933C21.417 46.3459 24.5828 46.3459 26.5355 44.3933L44.4643 26.4644C46.4169 24.5118 46.4169 21.346 44.4643 19.3933L26.5355 1.46447Z" fill="#313244"/>
<path d="M31.2237 6.15262L44.4645 19.3933C46.4171 21.346 46.4171 24.5118 44.4645 26.4644L31.2237 39.7051L17.983 26.4644C16.0304 24.5118 16.0304 21.346 17.983 19.3933L31.2237 6.15262Z" fill="#11111B"/>
<path fill-rule="evenodd" clip-rule="evenodd" d="M42.3431 21.5147L31.2237 10.3953L20.1043 21.5147C19.3233 22.2957 19.3233 23.562 20.1043 24.3431L31.2237 35.4625L42.3431 24.3431C43.1242 23.562 43.1242 22.2957 42.3431 21.5147ZM31.2237 6.15262L17.983 19.3933C16.0304 21.346 16.0304 24.5118 17.983 26.4644L31.2237 39.7051L44.4645 26.4644C46.4171 24.5118 46.4171 21.346 44.4645 19.3933L31.2237 6.15262Z" fill="#313244"/>
<path d="M38.7225 13.6517L44.4641 19.3933C46.4167 21.346 46.4167 24.5118 44.4641 26.4644L38.5302 32.3983L29.253 23.1211L38.7225 13.6517Z" fill="#313244"/>
</svg>
